<?xml version="1.0" encoding="UTF-8" standalone="no"?>
<!DOCTYPE svg PUBLIC "-//W3C//DTD SVG 1.1//EN" "http://www.w3.org/Graphics/SVG/1.1/DTD/svg11.dtd">
<svg version="1.1" xmlns="http://www.w3.org/2000/svg" xmlns:xlink="http://www.w3.org/1999/xlink" preserveAspectRatio="xMidYMid meet" viewBox="0 0 640 640" width="640" height="640"><defs><path d="M203.72 551.35C203.72 604.86 166.28 689.53 102.7 689.53C39.12 689.53 -12.5 646.08 -12.5 592.57C-12.5 539.05 -73.72 432.09 -10.14 432.09C53.45 432.09 203.72 497.84 203.72 551.35Z" id="b2gytOKw3G"></path><linearGradient id="gradientc72SPSu2a" gradientUnits="userSpaceOnUse" x1="82.35" y1="432.09" x2="82.35" y2="689.53"><stop style="stop-color: #300da8;stop-opacity: 0.74" offset="0%"></stop><stop style="stop-color: #010000;stop-opacity: 0.72" offset="100%"></stop></linearGradient><path d="M370.47 544.46C370.47 597.97 338.45 694.12 274.86 694.12C211.28 694.12 159.66 650.68 159.66 597.16C159.66 543.65 153.85 448.18 217.43 448.18C281.01 448.18 370.47 490.95 370.47 544.46Z" id="c70qVyf7b6"></path><linearGradient id="gradienta289s0ERNf" gradientUnits="userSpaceOnUse" x1="265" y1="448.18" x2="265" y2="694.12"><stop style="stop-color: #300da8;stop-opacity: 0.74" offset="0%"></stop><stop style="stop-color: #010000;stop-opacity: 0.72" offset="100%"></stop></linearGradient><path d="M560.88 592.57C560.88 646.08 509.26 689.53 445.68 689.53C382.09 689.53 330.47 646.08 330.47 592.57C330.47 539.05 396.96 452.91 460.54 452.91C524.12 452.91 560.88 539.05 560.88 592.57Z" id="g1HI8Aapk1"></path><linearGradient id="gradientd32s0znpRo" gradientUnits="userSpaceOnUse" x1="445.68" y1="452.91" x2="445.68" y2="689.53"><stop style="stop-color: #300da8;stop-opacity: 0.74" offset="0%"></stop><stop style="stop-color: #010000;stop-opacity: 0.72" offset="100%"></stop></linearGradient><path d="M685.72 519.79C717.6 562.77 702.03 628.42 650.97 666.3C599.9 704.18 532.56 700.05 500.68 657.07C468.79 614.09 469.24 572.29 520.3 534.4C571.36 496.52 653.83 476.81 685.72 519.79Z" id="iqHfFVndu"></path><linearGradient id="gradiente4ySgKmpWc" gradientUnits="userSpaceOnUse" x1="541.46" y1="518.7" x2="650.97" y2="666.3"><stop style="stop-color: #300da8;stop-opacity: 0.74" offset="0%"></stop><stop style="stop-color: #010000;stop-opacity: 0.72" offset="100%"></stop></linearGradient><path d="M373.31 517.03C453.37 517.03 518.3 564.72 518.3 623.55C518.3 625.77 518.22 627.98 518.01 630.16C575.85 639.11 618.38 669.07 618.38 704.66C618.38 704.66 618.38 704.66 618.38 704.66C618.38 747.31 557.32 781.89 482 781.89C447.79 781.89 174.11 781.89 139.9 781.89C64.59 781.89 3.51 747.31 3.51 704.66C3.51 704.66 3.51 704.66 3.51 704.66C3.51 667.47 49.93 636.43 111.72 629.09C117.26 588.77 163.59 557.3 219.92 557.3C232.3 557.3 244.18 558.83 255.27 561.62C281.6 534.63 324.65 517.03 373.31 517.03Z" id="a2DZQ9a6qG"></path><linearGradient id="gradientbkgCpE6kg" gradientUnits="userSpaceOnUse" x1="310.95" y1="517.03" x2="310.95" y2="781.89"><stop style="stop-color: #2e2680;stop-opacity: 1" offset="0%"></stop><stop style="stop-color: #114545;stop-opacity: 0.45" offset="100%"></stop></linearGradient></defs><g><g><g><g><use xlink:href="#b2gytOKw3G" opacity="1" fill="url(#gradientc72SPSu2a)"></use></g><g><use xlink:href="#c70qVyf7b6" opacity="1" fill="url(#gradienta289s0ERNf)"></use></g><g><use xlink:href="#g1HI8Aapk1" opacity="1" fill="url(#gradientd32s0znpRo)"></use></g><g><use xlink:href="#iqHfFVndu" opacity="1" fill="url(#gradiente4ySgKmpWc)"></use></g></g><g><use xlink:href="#a2DZQ9a6qG" opacity="1" fill="url(#gradientbkgCpE6kg)"></use></g></g></g></svg>