<?xml version="1.0" encoding="UTF-8" standalone="no"?>
<!DOCTYPE svg PUBLIC "-//W3C//DTD SVG 1.1//EN" "http://www.w3.org/Graphics/SVG/1.1/DTD/svg11.dtd">
<svg version="1.1" xmlns="http://www.w3.org/2000/svg" xmlns:xlink="http://www.w3.org/1999/xlink" preserveAspectRatio="xMidYMid meet" viewBox="0 0 640 640" width="640" height="640"><defs><path d="M0 640L640 640C640 640 640 640 640 640C640 500.35 551.25 376.14 419.13 330.89C382.35 318.3 420.23 331.27 365.28 312.45C305.16 291.86 287.3 215.45 332.07 170.34C343.12 159.21 312.7 189.86 332.07 170.34C363.82 138.36 367.34 87.94 340.34 51.85C335.16 44.94 322.23 27.65 301.54 0L0 0L0 640Z" id="aGSSW4CT9"></path><path d="M640.73 0L645.35 640C643.28 626.02 641.99 617.28 641.47 613.78C620.45 471.91 516.63 356.35 377.8 320.33C359.24 315.52 389.8 323.45 335.55 309.37C307.56 302.11 290.67 273.64 297.7 245.59C303.9 220.87 295.64 253.82 298.3 243.21C318.28 163.49 319.38 80.21 301.5 0C301.5 0 301.5 0 301.5 0L640.73 0Z" id="b1kbU356Xq"></path><path d="M618.33 516.39L618.21 517.71L618.01 519L617.74 520.27L617.4 521.51L616.99 522.72L616.51 523.9L615.97 525.04L615.37 526.14L614.7 527.21L613.98 528.23L613.2 529.21L612.36 530.14L611.48 531.03L610.55 531.86L609.57 532.64L608.55 533.36L607.48 534.03L606.38 534.63L605.23 535.18L604.06 535.65L602.85 536.06L601.61 536.41L600.34 536.68L599.05 536.87L597.73 536.99L596.39 537.03L595.06 536.99L593.74 536.87L592.45 536.68L591.18 536.41L589.94 536.06L588.73 535.65L587.55 535.18L586.41 534.63L585.31 534.03L584.24 533.36L583.22 532.64L582.24 531.86L581.31 531.03L580.42 530.14L579.59 529.21L578.81 528.23L578.09 527.21L577.42 526.14L576.82 525.04L576.28 523.9L575.8 522.72L575.39 521.51L575.05 520.27L574.78 519L574.58 517.71L574.46 516.39L574.42 515.06L574.46 513.72L574.58 512.4L574.78 511.11L575.05 509.84L575.39 508.6L575.8 507.39L576.28 506.22L576.82 505.07L577.42 503.97L578.09 502.91L578.81 501.88L579.59 500.9L580.42 499.97L581.31 499.09L582.24 498.25L583.22 497.47L584.24 496.75L585.31 496.09L586.41 495.48L587.55 494.94L588.73 494.46L589.94 494.05L591.18 493.71L592.45 493.44L593.74 493.24L595.06 493.12L596.39 493.08L597.73 493.12L599.05 493.24L600.34 493.44L601.61 493.71L602.85 494.05L604.06 494.46L605.23 494.94L606.38 495.48L607.48 496.09L608.55 496.75L609.57 497.47L610.55 498.25L611.48 499.09L612.36 499.97L613.2 500.9L613.98 501.88L614.7 502.91L615.37 503.97L615.97 505.07L616.51 506.22L616.99 507.39L617.4 508.6L617.74 509.84L618.01 511.11L618.21 512.4L618.33 513.72L618.37 515.06L618.37 515.06L618.33 516.39Z" id="cbzRHVc1L"></path><linearGradient id="gradientb1usWRGSQ6" gradientUnits="userSpaceOnUse" x1="596.39" y1="493.08" x2="596.39" y2="537.03"><stop style="stop-color: #140839;stop-opacity: 0.54" offset="0%"></stop><stop style="stop-color: #0f072a;stop-opacity: 0.17" offset="100%"></stop></linearGradient><path d="M644.56 537.03C644.56 549.16 634.71 559 622.59 559C610.46 559 600.61 549.16 600.61 537.03C600.61 524.9 610.46 515.06 622.59 515.06C634.71 515.06 644.56 524.9 644.56 537.03Z" id="bfujpWabU"></path><linearGradient id="gradientlfklgURmL" gradientUnits="userSpaceOnUse" x1="622.59" y1="515.06" x2="622.59" y2="559"><stop style="stop-color: #130839;stop-opacity: 0.54" offset="0%"></stop><stop style="stop-color: #0e062a;stop-opacity: 0.17" offset="100%"></stop></linearGradient><path d="M656.42 495.95C658.86 507.83 651.19 519.45 639.31 521.89C627.43 524.32 615.81 516.66 613.37 504.78C610.94 492.9 618.6 481.28 630.48 478.84C642.36 476.4 653.99 484.07 656.42 495.95Z" id="bbl9DF5AXh"></path><linearGradient id="gradienta1ZlbrZmIz" gradientUnits="userSpaceOnUse" x1="630.48" y1="478.84" x2="639.31" y2="521.89"><stop style="stop-color: #130839;stop-opacity: 0.54" offset="0%"></stop><stop style="stop-color: #0e062a;stop-opacity: 0.17" offset="100%"></stop></linearGradient><path d="M626.78 478.39C626.78 490.52 616.93 500.36 604.81 500.36C592.68 500.36 582.83 490.52 582.83 478.39C582.83 466.26 592.68 456.42 604.81 456.42C616.93 456.42 626.78 466.26 626.78 478.39Z" id="d3EhJVpTmm"></path><linearGradient id="gradienta2JZl4oj0v" gradientUnits="userSpaceOnUse" x1="604.81" y1="456.42" x2="604.81" y2="500.36"><stop style="stop-color: #130839;stop-opacity: 0.54" offset="0%"></stop><stop style="stop-color: #0e062a;stop-opacity: 0.17" offset="100%"></stop></linearGradient><path d="M627.56 349.84L627.44 351.16L627.24 352.45L626.97 353.72L626.63 354.96L626.22 356.17L625.74 357.34L625.2 358.49L624.59 359.59L623.93 360.65L623.21 361.68L622.43 362.66L621.59 363.59L620.71 364.47L619.78 365.31L618.8 366.09L617.77 366.81L616.71 367.47L615.61 368.08L614.46 368.62L613.29 369.1L612.08 369.51L610.84 369.85L609.57 370.12L608.28 370.32L606.96 370.44L605.62 370.48L604.29 370.44L602.97 370.32L601.68 370.12L600.41 369.85L599.17 369.51L597.96 369.1L596.78 368.62L595.64 368.08L594.54 367.47L593.47 366.81L592.45 366.09L591.47 365.31L590.54 364.47L589.65 363.59L588.82 362.66L588.04 361.68L587.32 360.65L586.65 359.59L586.05 358.49L585.5 357.34L585.03 356.17L584.62 354.96L584.27 353.72L584.01 352.45L583.81 351.16L583.69 349.84L583.65 348.5L583.69 347.17L583.81 345.85L584.01 344.56L584.27 343.29L584.62 342.05L585.03 340.84L585.5 339.66L586.05 338.52L586.65 337.42L587.32 336.35L588.04 335.33L588.82 334.35L589.65 333.42L590.54 332.53L591.47 331.7L592.45 330.92L593.47 330.2L594.54 329.53L595.64 328.93L596.78 328.38L597.96 327.91L599.17 327.5L600.41 327.15L601.68 326.88L602.97 326.69L604.29 326.57L605.62 326.53L606.96 326.57L608.28 326.69L609.57 326.88L610.84 327.15L612.08 327.5L613.29 327.91L614.46 328.38L615.61 328.93L616.71 329.53L617.77 330.2L618.8 330.92L619.78 331.7L620.71 332.53L621.59 333.42L622.43 334.35L623.21 335.33L623.93 336.35L624.59 337.42L625.2 338.52L625.74 339.66L626.22 340.84L626.63 342.05L626.97 343.29L627.24 344.56L627.44 345.85L627.56 347.17L627.6 348.5L627.6 348.5L627.56 349.84Z" id="de3OnfVu"></path><linearGradient id="gradientcj4duOaWb" gradientUnits="userSpaceOnUse" x1="605.62" y1="326.53" x2="605.62" y2="370.48"><stop style="stop-color: #130839;stop-opacity: 0.54" offset="0%"></stop><stop style="stop-color: #0e062a;stop-opacity: 0.17" offset="100%"></stop></linearGradient><path d="M653.79 370.48C653.79 382.6 643.94 392.45 631.81 392.45C619.69 392.45 609.84 382.6 609.84 370.48C609.84 358.35 619.69 348.5 631.81 348.5C643.94 348.5 653.79 358.35 653.79 370.48Z" id="g6SiVJrlhX"></path><linearGradient id="gradientb9ryA7Jotp" gradientUnits="userSpaceOnUse" x1="631.81" y1="348.5" x2="631.81" y2="392.45"><stop style="stop-color: #130839;stop-opacity: 0.54" offset="0%"></stop><stop style="stop-color: #0e062a;stop-opacity: 0.17" offset="100%"></stop></linearGradient><path d="M665.65 329.39C668.09 341.27 660.42 352.9 648.54 355.33C636.66 357.77 625.04 350.1 622.6 338.22C620.17 326.35 627.83 314.72 639.71 312.28C651.59 309.85 663.21 317.51 665.65 329.39Z" id="d1x4b2LfWD"></path><linearGradient id="gradientfiY23txcx" gradientUnits="userSpaceOnUse" x1="639.71" y1="312.28" x2="648.54" y2="355.33"><stop style="stop-color: #130839;stop-opacity: 0.54" offset="0%"></stop><stop style="stop-color: #0e062a;stop-opacity: 0.17" offset="100%"></stop></linearGradient><path d="M636.01 311.84C636.01 323.96 626.16 333.81 614.04 333.81C601.91 333.81 592.06 323.96 592.06 311.84C592.06 299.71 601.91 289.86 614.04 289.86C626.16 289.86 636.01 299.71 636.01 311.84Z" id="bDILXwHcd"></path><linearGradient id="gradientb1rt7ULOMT" gradientUnits="userSpaceOnUse" x1="614.04" y1="289.86" x2="614.04" y2="333.81"><stop style="stop-color: #130839;stop-opacity: 0.54" offset="0%"></stop><stop style="stop-color: #0e062a;stop-opacity: 0.17" offset="100%"></stop></linearGradient><path d="M618.33 423.81L618.21 425.13L618.01 426.42L617.74 427.69L617.4 428.93L616.99 430.14L616.51 431.31L615.97 432.45L615.37 433.56L614.7 434.62L613.98 435.65L613.2 436.63L612.36 437.56L611.48 438.44L610.55 439.27L609.57 440.05L608.55 440.78L607.48 441.44L606.38 442.05L605.23 442.59L604.06 443.07L602.85 443.48L601.61 443.82L600.34 444.09L599.05 444.29L597.73 444.4L596.39 444.44L595.06 444.4L593.74 444.29L592.45 444.09L591.18 443.82L589.94 443.48L588.73 443.07L587.55 442.59L586.41 442.05L585.31 441.44L584.24 440.78L583.22 440.05L582.24 439.27L581.31 438.44L580.42 437.56L579.59 436.63L578.81 435.65L578.09 434.62L577.42 433.56L576.82 432.45L576.28 431.31L575.8 430.14L575.39 428.93L575.05 427.69L574.78 426.42L574.58 425.13L574.46 423.81L574.42 422.47L574.46 421.13L574.58 419.82L574.78 418.52L575.05 417.26L575.39 416.02L575.8 414.81L576.28 413.63L576.82 412.49L577.42 411.39L578.09 410.32L578.81 409.3L579.59 408.32L580.42 407.39L581.31 406.5L582.24 405.67L583.22 404.89L584.24 404.17L585.31 403.5L586.41 402.9L587.55 402.35L588.73 401.87L589.94 401.46L591.18 401.12L592.45 400.85L593.74 400.66L595.06 400.54L596.39 400.5L597.73 400.54L599.05 400.66L600.34 400.85L601.61 401.12L602.85 401.46L604.06 401.87L605.23 402.35L606.38 402.9L607.48 403.5L608.55 404.17L609.57 404.89L610.55 405.67L611.48 406.5L612.36 407.39L613.2 408.32L613.98 409.3L614.7 410.32L615.37 411.39L615.97 412.49L616.51 413.63L616.99 414.81L617.4 416.02L617.74 417.26L618.01 418.52L618.21 419.82L618.33 421.13L618.37 422.47L618.37 422.47L618.33 423.81Z" id="c5Nt62Hr6a"></path><linearGradient id="gradientcKPVCuf11" gradientUnits="userSpaceOnUse" x1="596.39" y1="400.5" x2="596.39" y2="444.44"><stop style="stop-color: #130839;stop-opacity: 0.54" offset="0%"></stop><stop style="stop-color: #0e062a;stop-opacity: 0.17" offset="100%"></stop></linearGradient><path d="M644.56 444.44C644.56 456.57 634.71 466.42 622.59 466.42C610.46 466.42 600.61 456.57 600.61 444.44C600.61 432.32 610.46 422.47 622.59 422.47C634.71 422.47 644.56 432.32 644.56 444.44Z" id="b1xvdpnI1E"></path><linearGradient id="gradientj1hSgXD3Ft" gradientUnits="userSpaceOnUse" x1="622.59" y1="422.47" x2="622.59" y2="466.42"><stop style="stop-color: #130839;stop-opacity: 0.54" offset="0%"></stop><stop style="stop-color: #0e062a;stop-opacity: 0.17" offset="100%"></stop></linearGradient><path d="M656.42 403.36C658.86 415.24 651.19 426.87 639.31 429.3C627.43 431.74 615.81 424.07 613.37 412.19C610.94 400.31 618.6 388.69 630.48 386.25C642.36 383.82 653.99 391.48 656.42 403.36Z" id="c1c5rblfch"></path><linearGradient id="gradienta1svFPxGz" gradientUnits="userSpaceOnUse" x1="630.48" y1="386.25" x2="639.31" y2="429.3"><stop style="stop-color: #130839;stop-opacity: 0.54" offset="0%"></stop><stop style="stop-color: #0e062a;stop-opacity: 0.17" offset="100%"></stop></linearGradient><path d="M626.78 385.8C626.78 397.93 616.93 407.78 604.81 407.78C592.68 407.78 582.83 397.93 582.83 385.8C582.83 373.68 592.68 363.83 604.81 363.83C616.93 363.83 626.78 373.68 626.78 385.8Z" id="bMJgJEAWT"></path><linearGradient id="gradienta1NJpWmyUB" gradientUnits="userSpaceOnUse" x1="604.81" y1="363.83" x2="604.81" y2="407.78"><stop style="stop-color: #130839;stop-opacity: 0.54" offset="0%"></stop><stop style="stop-color: #0e062a;stop-opacity: 0.17" offset="100%"></stop></linearGradient><path d="M634.45 274.24L634.33 275.56L634.14 276.85L633.87 278.12L633.52 279.36L633.11 280.57L632.64 281.74L632.09 282.88L631.49 283.99L630.82 285.05L630.1 286.08L629.32 287.06L628.49 287.99L627.6 288.87L626.67 289.7L625.69 290.48L624.67 291.21L623.6 291.87L622.5 292.48L621.36 293.02L620.18 293.5L618.97 293.91L617.73 294.25L616.46 294.52L615.17 294.72L613.85 294.84L612.52 294.88L611.18 294.84L609.86 294.72L608.57 294.52L607.3 294.25L606.06 293.91L604.85 293.5L603.68 293.02L602.53 292.48L601.43 291.87L600.37 291.21L599.34 290.48L598.36 289.7L597.43 288.87L596.55 287.99L595.71 287.06L594.94 286.08L594.21 285.05L593.55 283.99L592.94 282.88L592.4 281.74L591.92 280.57L591.51 279.36L591.17 278.12L590.9 276.85L590.7 275.56L590.58 274.24L590.54 272.9L590.58 271.56L590.7 270.25L590.9 268.95L591.17 267.69L591.51 266.45L591.92 265.24L592.4 264.06L592.94 262.92L593.55 261.82L594.21 260.75L594.94 259.73L595.71 258.75L596.55 257.82L597.43 256.93L598.36 256.1L599.34 255.32L600.37 254.6L601.43 253.93L602.53 253.33L603.68 252.78L604.85 252.31L606.06 251.89L607.3 251.55L608.57 251.28L609.86 251.09L611.18 250.97L612.52 250.93L613.85 250.97L615.17 251.09L616.46 251.28L617.73 251.55L618.97 251.89L620.18 252.31L621.36 252.78L622.5 253.33L623.6 253.93L624.67 254.6L625.69 255.32L626.67 256.1L627.6 256.93L628.49 257.82L629.32 258.75L630.1 259.73L630.82 260.75L631.49 261.82L632.09 262.92L632.64 264.06L633.11 265.24L633.52 266.45L633.87 267.69L634.14 268.95L634.33 270.25L634.45 271.56L634.49 272.9L634.49 272.9L634.45 274.24Z" id="a2vsvZCXgH"></path><linearGradient id="gradientalO3is0e9" gradientUnits="userSpaceOnUse" x1="612.52" y1="250.93" x2="612.52" y2="294.88"><stop style="stop-color: #130839;stop-opacity: 0.54" offset="0%"></stop><stop style="stop-color: #0e062a;stop-opacity: 0.17" offset="100%"></stop></linearGradient><path d="M660.68 294.88C660.68 307 650.83 316.85 638.71 316.85C626.58 316.85 616.73 307 616.73 294.88C616.73 282.75 626.58 272.9 638.71 272.9C650.83 272.9 660.68 282.75 660.68 294.88Z" id="bEpoGdvMY"></path><linearGradient id="gradientbKAtaOO0M" gradientUnits="userSpaceOnUse" x1="638.71" y1="272.9" x2="638.71" y2="316.85"><stop style="stop-color: #130839;stop-opacity: 0.54" offset="0%"></stop><stop style="stop-color: #0e062a;stop-opacity: 0.17" offset="100%"></stop></linearGradient><path d="M672.55 253.79C674.98 265.67 667.32 277.3 655.44 279.73C643.56 282.17 631.93 274.5 629.5 262.62C627.06 250.74 634.73 239.12 646.61 236.68C658.48 234.25 670.11 241.91 672.55 253.79Z" id="b1QUOjpzEa"></path><linearGradient id="gradienta2vpYxiTBr" gradientUnits="userSpaceOnUse" x1="646.61" y1="236.68" x2="655.44" y2="279.73"><stop style="stop-color: #130839;stop-opacity: 0.54" offset="0%"></stop><stop style="stop-color: #0e062a;stop-opacity: 0.17" offset="100%"></stop></linearGradient><path d="M642.9 236.24C642.9 248.36 633.06 258.21 620.93 258.21C608.8 258.21 598.96 248.36 598.96 236.24C598.96 224.11 608.8 214.26 620.93 214.26C633.06 214.26 642.9 224.11 642.9 236.24Z" id="e3AsQKnXX"></path><linearGradient id="gradientbTCaTLDDl" gradientUnits="userSpaceOnUse" x1="620.93" y1="214.26" x2="620.93" y2="258.21"><stop style="stop-color: #130839;stop-opacity: 0.54" offset="0%"></stop><stop style="stop-color: #0e062a;stop-opacity: 0.17" offset="100%"></stop></linearGradient><path d="M620.55 188.64L620.43 189.96L620.24 191.25L619.97 192.52L619.62 193.76L619.21 194.97L618.74 196.14L618.19 197.28L617.59 198.39L616.92 199.45L616.2 200.48L615.42 201.46L614.59 202.39L613.7 203.27L612.77 204.1L611.79 204.88L610.77 205.61L609.7 206.27L608.6 206.88L607.46 207.42L606.28 207.9L605.07 208.31L603.83 208.65L602.56 208.92L601.27 209.12L599.95 209.23L598.62 209.27L597.28 209.23L595.96 209.12L594.67 208.92L593.4 208.65L592.16 208.31L590.95 207.9L589.78 207.42L588.63 206.88L587.53 206.27L586.47 205.61L585.44 204.88L584.46 204.1L583.53 203.27L582.65 202.39L581.81 201.46L581.04 200.48L580.31 199.45L579.65 198.39L579.04 197.28L578.5 196.14L578.02 194.97L577.61 193.76L577.27 192.52L577 191.25L576.8 189.96L576.68 188.64L576.64 187.3L576.68 185.96L576.8 184.65L577 183.35L577.27 182.09L577.61 180.85L578.02 179.64L578.5 178.46L579.04 177.32L579.65 176.22L580.31 175.15L581.04 174.13L581.81 173.15L582.65 172.22L583.53 171.33L584.46 170.5L585.44 169.72L586.47 169L587.53 168.33L588.63 167.73L589.78 167.18L590.95 166.7L592.16 166.29L593.4 165.95L594.67 165.68L595.96 165.49L597.28 165.37L598.62 165.33L599.95 165.37L601.27 165.49L602.56 165.68L603.83 165.95L605.07 166.29L606.28 166.7L607.46 167.18L608.6 167.73L609.7 168.33L610.77 169L611.79 169.72L612.77 170.5L613.7 171.33L614.59 172.22L615.42 173.15L616.2 174.13L616.92 175.15L617.59 176.22L618.19 177.32L618.74 178.46L619.21 179.64L619.62 180.85L619.97 182.09L620.24 183.35L620.43 184.65L620.55 185.96L620.59 187.3L620.59 187.3L620.55 188.64Z" id="b1aPwz64yX"></path><linearGradient id="gradientc3knIoIfaP" gradientUnits="userSpaceOnUse" x1="598.62" y1="165.33" x2="598.62" y2="209.27"><stop style="stop-color: #130839;stop-opacity: 0.54" offset="0%"></stop><stop style="stop-color: #0e062a;stop-opacity: 0.17" offset="100%"></stop></linearGradient><path d="M646.78 209.27C646.78 221.4 636.93 231.25 624.81 231.25C612.68 231.25 602.83 221.4 602.83 209.27C602.83 197.15 612.68 187.3 624.81 187.3C636.93 187.3 646.78 197.15 646.78 209.27Z" id="bACGd3k6o"></path><linearGradient id="gradienta1XQYiYKTV" gradientUnits="userSpaceOnUse" x1="624.81" y1="187.3" x2="624.81" y2="231.25"><stop style="stop-color: #130839;stop-opacity: 0.54" offset="0%"></stop><stop style="stop-color: #0e062a;stop-opacity: 0.17" offset="100%"></stop></linearGradient><path d="M658.64 168.19C661.08 180.07 653.42 191.7 641.54 194.13C629.66 196.57 618.03 188.9 615.6 177.02C613.16 165.14 620.83 153.52 632.7 151.08C644.58 148.65 656.21 156.31 658.64 168.19Z" id="a1CiMlPFEK"></path><linearGradient id="gradienteCpMMjWir" gradientUnits="userSpaceOnUse" x1="632.7" y1="151.08" x2="641.54" y2="194.13"><stop style="stop-color: #130839;stop-opacity: 0.54" offset="0%"></stop><stop style="stop-color: #0e062a;stop-opacity: 0.17" offset="100%"></stop></linearGradient><path d="M629 150.63C629 162.76 619.16 172.61 607.03 172.61C594.9 172.61 585.06 162.76 585.06 150.63C585.06 138.51 594.9 128.66 607.03 128.66C619.16 128.66 629 138.51 629 150.63Z" id="cQsgRwj9x"></path><linearGradient id="gradientcR4gZuglE" gradientUnits="userSpaceOnUse" x1="607.03" y1="128.66" x2="607.03" y2="172.61"><stop style="stop-color: #130839;stop-opacity: 0.54" offset="0%"></stop><stop style="stop-color: #0e062a;stop-opacity: 0.17" offset="100%"></stop></linearGradient><path d="M593.22 108.44L593.1 109.75L592.91 111.05L592.64 112.31L592.3 113.55L591.89 114.76L591.41 115.94L590.87 117.08L590.26 118.18L589.6 119.25L588.87 120.27L588.09 121.25L587.26 122.18L586.38 123.07L585.44 123.9L584.47 124.68L583.44 125.4L582.38 126.07L581.27 126.67L580.13 127.22L578.95 127.69L577.75 128.11L576.51 128.45L575.24 128.72L573.95 128.91L572.63 129.03L571.29 129.07L569.95 129.03L568.64 128.91L567.34 128.72L566.08 128.45L564.84 128.11L563.63 127.69L562.45 127.22L561.31 126.67L560.2 126.07L559.14 125.4L558.12 124.68L557.14 123.9L556.2 123.07L555.32 122.18L554.49 121.25L553.71 120.27L552.99 119.25L552.32 118.18L551.71 117.08L551.17 115.94L550.69 114.76L550.28 113.55L549.94 112.31L549.67 111.05L549.48 109.75L549.36 108.44L549.32 107.1L549.36 105.76L549.48 104.44L549.67 103.15L549.94 101.88L550.28 100.64L550.69 99.43L551.17 98.26L551.71 97.12L552.32 96.01L552.99 94.95L553.71 93.92L554.49 92.94L555.32 92.01L556.2 91.13L557.14 90.3L558.12 89.52L559.14 88.79L560.2 88.13L561.31 87.52L562.45 86.98L563.63 86.5L564.84 86.09L566.08 85.75L567.34 85.48L568.64 85.28L569.95 85.16L571.29 85.12L572.63 85.16L573.95 85.28L575.24 85.48L576.51 85.75L577.75 86.09L578.95 86.5L580.13 86.98L581.27 87.52L582.38 88.13L583.44 88.79L584.47 89.52L585.44 90.3L586.38 91.13L587.26 92.01L588.09 92.94L588.87 93.92L589.6 94.95L590.26 96.01L590.87 97.12L591.41 98.26L591.89 99.43L592.3 100.64L592.64 101.88L592.91 103.15L593.1 104.44L593.22 105.76L593.26 107.1L593.26 107.1L593.22 108.44Z" id="b4fOtLskUy"></path><linearGradient id="gradientiSBQX54gW" gradientUnits="userSpaceOnUse" x1="571.29" y1="85.12" x2="571.29" y2="129.07"><stop style="stop-color: #130839;stop-opacity: 0.54" offset="0%"></stop><stop style="stop-color: #0e062a;stop-opacity: 0.17" offset="100%"></stop></linearGradient><path d="M619.45 129.07C619.45 141.2 609.61 151.04 597.48 151.04C585.35 151.04 575.51 141.2 575.51 129.07C575.51 116.94 585.35 107.1 597.48 107.1C609.61 107.1 619.45 116.94 619.45 129.07Z" id="fNwHV3Fgh"></path><linearGradient id="gradienta1GX6MRt9o" gradientUnits="userSpaceOnUse" x1="597.48" y1="107.1" x2="597.48" y2="151.04"><stop style="stop-color: #130839;stop-opacity: 0.54" offset="0%"></stop><stop style="stop-color: #0e062a;stop-opacity: 0.17" offset="100%"></stop></linearGradient><path d="M631.32 87.99C633.76 99.87 626.09 111.49 614.21 113.93C602.33 116.37 590.71 108.7 588.27 96.82C585.83 84.94 593.5 73.32 605.38 70.88C617.26 68.44 628.88 76.11 631.32 87.99Z" id="b8kLZTWBwN"></path><linearGradient id="gradientaTI5CYJw" gradientUnits="userSpaceOnUse" x1="605.38" y1="70.88" x2="614.21" y2="113.93"><stop style="stop-color: #130839;stop-opacity: 0.54" offset="0%"></stop><stop style="stop-color: #0e062a;stop-opacity: 0.17" offset="100%"></stop></linearGradient><path d="M601.68 70.43C601.68 82.56 591.83 92.4 579.7 92.4C567.58 92.4 557.73 82.56 557.73 70.43C557.73 58.3 567.58 48.46 579.7 48.46C591.83 48.46 601.68 58.3 601.68 70.43Z" id="c56mjo03a"></path><linearGradient id="gradientaNLhl0BhU" gradientUnits="userSpaceOnUse" x1="579.7" y1="48.46" x2="579.7" y2="92.4"><stop style="stop-color: #130839;stop-opacity: 0.54" offset="0%"></stop><stop style="stop-color: #0e062a;stop-opacity: 0.17" offset="100%"></stop></linearGradient><path d="M527.22 52.9L527.1 54.22L526.9 55.51L526.63 56.78L526.29 58.02L525.88 59.23L525.4 60.4L524.86 61.55L524.25 62.65L523.59 63.72L522.87 64.74L522.09 65.72L521.25 66.65L520.37 67.53L519.44 68.37L518.46 69.15L517.43 69.87L516.37 70.54L515.27 71.14L514.12 71.68L512.95 72.16L511.74 72.57L510.5 72.91L509.23 73.18L507.94 73.38L506.62 73.5L505.28 73.54L503.95 73.5L502.63 73.38L501.34 73.18L500.07 72.91L498.83 72.57L497.62 72.16L496.44 71.68L495.3 71.14L494.2 70.54L493.13 69.87L492.11 69.15L491.13 68.37L490.2 67.53L489.31 66.65L488.48 65.72L487.7 64.74L486.98 63.72L486.31 62.65L485.71 61.55L485.16 60.4L484.69 59.23L484.28 58.02L483.93 56.78L483.66 55.51L483.47 54.22L483.35 52.9L483.31 51.56L483.35 50.23L483.47 48.91L483.66 47.62L483.93 46.35L484.28 45.11L484.69 43.9L485.16 42.72L485.71 41.58L486.31 40.48L486.98 39.41L487.7 38.39L488.48 37.41L489.31 36.48L490.2 35.59L491.13 34.76L492.11 33.98L493.13 33.26L494.2 32.59L495.3 31.99L496.44 31.45L497.62 30.97L498.83 30.56L500.07 30.22L501.34 29.95L502.63 29.75L503.95 29.63L505.28 29.59L506.62 29.63L507.94 29.75L509.23 29.95L510.5 30.22L511.74 30.56L512.95 30.97L514.12 31.45L515.27 31.99L516.37 32.59L517.43 33.26L518.46 33.98L519.44 34.76L520.37 35.59L521.25 36.48L522.09 37.41L522.87 38.39L523.59 39.41L524.25 40.48L524.86 41.58L525.4 42.72L525.88 43.9L526.29 45.11L526.63 46.35L526.9 47.62L527.1 48.91L527.22 50.23L527.26 51.56L527.26 51.56L527.22 52.9Z" id="aSOG76HLE"></path><linearGradient id="gradientc8RVkUvC8" gradientUnits="userSpaceOnUse" x1="505.28" y1="29.59" x2="505.28" y2="73.54"><stop style="stop-color: #130839;stop-opacity: 0.54" offset="0%"></stop><stop style="stop-color: #0e062a;stop-opacity: 0.17" offset="100%"></stop></linearGradient><path d="M553.45 73.54C553.45 85.66 543.6 95.51 531.47 95.51C519.35 95.51 509.5 85.66 509.5 73.54C509.5 61.41 519.35 51.56 531.47 51.56C543.6 51.56 553.45 61.41 553.45 73.54Z" id="c2IOyz05gv"></path><linearGradient id="gradientbHHPJCF1m" gradientUnits="userSpaceOnUse" x1="531.47" y1="51.56" x2="531.47" y2="95.51"><stop style="stop-color: #130839;stop-opacity: 0.54" offset="0%"></stop><stop style="stop-color: #0e062a;stop-opacity: 0.17" offset="100%"></stop></linearGradient><path d="M565.31 32.46C567.75 44.34 560.08 55.96 548.2 58.4C536.32 60.83 524.7 53.17 522.26 41.29C519.83 29.41 527.49 17.78 539.37 15.35C551.25 12.91 562.87 20.58 565.31 32.46Z" id="a18ZODXKuS"></path><linearGradient id="gradientg8zrYHedF" gradientUnits="userSpaceOnUse" x1="539.37" y1="15.35" x2="548.2" y2="58.4"><stop style="stop-color: #130839;stop-opacity: 0.54" offset="0%"></stop><stop style="stop-color: #0e062a;stop-opacity: 0.17" offset="100%"></stop></linearGradient><path d="M535.67 14.9C535.67 27.03 525.82 36.87 513.7 36.87C501.57 36.87 491.72 27.03 491.72 14.9C491.72 2.77 501.57 -7.07 513.7 -7.07C525.82 -7.07 535.67 2.77 535.67 14.9Z" id="a4770Zreh"></path><linearGradient id="gradientc1fXzGKLLW" gradientUnits="userSpaceOnUse" x1="513.7" y1="-7.07" x2="513.7" y2="36.87"><stop style="stop-color: #130839;stop-opacity: 0.54" offset="0%"></stop><stop style="stop-color: #0e062a;stop-opacity: 0.17" offset="100%"></stop></linearGradient><path d="M471.68 22.04L471.56 23.36L471.37 24.65L471.1 25.92L470.76 27.16L470.35 28.37L469.87 29.54L469.33 30.68L468.72 31.79L468.06 32.85L467.33 33.88L466.55 34.86L465.72 35.79L464.84 36.67L463.9 37.51L462.93 38.28L461.9 39.01L460.84 39.67L459.73 40.28L458.59 40.82L457.41 41.3L456.21 41.71L454.97 42.05L453.7 42.32L452.4 42.52L451.09 42.64L449.75 42.68L448.41 42.64L447.1 42.52L445.8 42.32L444.54 42.05L443.3 41.71L442.09 41.3L440.91 40.82L439.77 40.28L438.66 39.67L437.6 39.01L436.58 38.28L435.6 37.51L434.66 36.67L433.78 35.79L432.95 34.86L432.17 33.88L431.45 32.85L430.78 31.79L430.17 30.68L429.63 29.54L429.15 28.37L428.74 27.16L428.4 25.92L428.13 24.65L427.94 23.36L427.82 22.04L427.78 20.7L427.82 19.37L427.94 18.05L428.13 16.76L428.4 15.49L428.74 14.25L429.15 13.04L429.63 11.86L430.17 10.72L430.78 9.62L431.45 8.55L432.17 7.53L432.95 6.55L433.78 5.62L434.66 4.73L435.6 3.9L436.58 3.12L437.6 2.4L438.66 1.73L439.77 1.13L440.91 0.58L442.09 0.11L443.3 -0.3L444.54 -0.65L445.8 -0.92L447.1 -1.11L448.41 -1.23L449.75 -1.27L451.09 -1.23L452.4 -1.11L453.7 -0.92L454.97 -0.65L456.21 -0.3L457.41 0.11L458.59 0.58L459.73 1.13L460.84 1.73L461.9 2.4L462.93 3.12L463.9 3.9L464.84 4.73L465.72 5.62L466.55 6.55L467.33 7.53L468.06 8.55L468.72 9.62L469.33 10.72L469.87 11.86L470.35 13.04L470.76 14.25L471.1 15.49L471.37 16.76L471.56 18.05L471.68 19.37L471.72 20.7L471.72 20.7L471.68 22.04Z" id="a3ppLbO7fX"></path><linearGradient id="gradientae5v8OFDl" gradientUnits="userSpaceOnUse" x1="449.75" y1="-1.27" x2="449.75" y2="42.68"><stop style="stop-color: #130839;stop-opacity: 0.54" offset="0%"></stop><stop style="stop-color: #0e062a;stop-opacity: 0.17" offset="100%"></stop></linearGradient><path d="M497.91 42.68C497.91 54.8 488.07 64.65 475.94 64.65C463.81 64.65 453.97 54.8 453.97 42.68C453.97 30.55 463.81 20.7 475.94 20.7C488.07 20.7 497.91 30.55 497.91 42.68Z" id="f2mDyIoon"></path><linearGradient id="gradientc7jzsY7PWD" gradientUnits="userSpaceOnUse" x1="475.94" y1="20.7" x2="475.94" y2="64.65"><stop style="stop-color: #130839;stop-opacity: 0.54" offset="0%"></stop><stop style="stop-color: #0e062a;stop-opacity: 0.17" offset="100%"></stop></linearGradient><path d="M509.78 1.59C512.22 13.47 504.55 25.1 492.67 27.53C480.79 29.97 469.17 22.3 466.73 10.42C464.29 -1.46 471.96 -13.08 483.84 -15.52C495.72 -17.95 507.34 -10.29 509.78 1.59Z" id="a1TkZhgGIV"></path><linearGradient id="gradientabHZvc3shc" gradientUnits="userSpaceOnUse" x1="483.84" y1="-15.52" x2="492.67" y2="27.53"><stop style="stop-color: #130839;stop-opacity: 0.54" offset="0%"></stop><stop style="stop-color: #0e062a;stop-opacity: 0.17" offset="100%"></stop></linearGradient><path d="M480.14 -15.96C480.14 -3.84 470.29 6.01 458.16 6.01C446.04 6.01 436.19 -3.84 436.19 -15.96C436.19 -28.09 446.04 -37.94 458.16 -37.94C470.29 -37.94 480.14 -28.09 480.14 -15.96Z" id="aVVOoUirh"></path><linearGradient id="gradientb2CpgdVCmR" gradientUnits="userSpaceOnUse" x1="458.16" y1="-37.94" x2="458.16" y2="6.01"><stop style="stop-color: #130839;stop-opacity: 0.54" offset="0%"></stop><stop style="stop-color: #0e062a;stop-opacity: 0.17" offset="100%"></stop></linearGradient><path d="M637.42 108.44L637.3 109.75L637.11 111.05L636.84 112.31L636.5 113.55L636.08 114.76L635.61 115.94L635.06 117.08L634.46 118.18L633.79 119.25L633.07 120.27L632.29 121.25L631.46 122.18L630.57 123.07L629.64 123.9L628.66 124.68L627.64 125.4L626.57 126.07L625.47 126.67L624.33 127.22L623.15 127.69L621.94 128.11L620.7 128.45L619.44 128.72L618.14 128.91L616.83 129.03L615.49 129.07L614.15 129.03L612.83 128.91L611.54 128.72L610.27 128.45L609.03 128.11L607.82 127.69L606.65 127.22L605.51 126.67L604.4 126.07L603.34 125.4L602.31 124.68L601.33 123.9L600.4 123.07L599.52 122.18L598.69 121.25L597.91 120.27L597.18 119.25L596.52 118.18L595.91 117.08L595.37 115.94L594.89 114.76L594.48 113.55L594.14 112.31L593.87 111.05L593.67 109.75L593.55 108.44L593.51 107.1L593.55 105.76L593.67 104.44L593.87 103.15L594.14 101.88L594.48 100.64L594.89 99.43L595.37 98.26L595.91 97.12L596.52 96.01L597.18 94.95L597.91 93.92L598.69 92.94L599.52 92.01L600.4 91.13L601.33 90.3L602.31 89.52L603.34 88.79L604.4 88.13L605.51 87.52L606.65 86.98L607.82 86.5L609.03 86.09L610.27 85.75L611.54 85.48L612.83 85.28L614.15 85.16L615.49 85.12L616.83 85.16L618.14 85.28L619.44 85.48L620.7 85.75L621.94 86.09L623.15 86.5L624.33 86.98L625.47 87.52L626.57 88.13L627.64 88.79L628.66 89.52L629.64 90.3L630.57 91.13L631.46 92.01L632.29 92.94L633.07 93.92L633.79 94.95L634.46 96.01L635.06 97.12L635.61 98.26L636.08 99.43L636.5 100.64L636.84 101.88L637.11 103.15L637.3 104.44L637.42 105.76L637.46 107.1L637.46 107.1L637.42 108.44Z" id="cvu85ArwV"></path><linearGradient id="gradientd12MP07MZC" gradientUnits="userSpaceOnUse" x1="615.49" y1="85.12" x2="615.49" y2="129.07"><stop style="stop-color: #130839;stop-opacity: 0.54" offset="0%"></stop><stop style="stop-color: #0e062a;stop-opacity: 0.17" offset="100%"></stop></linearGradient><path d="M663.65 129.07C663.65 141.2 653.81 151.04 641.68 151.04C629.55 151.04 619.71 141.2 619.71 129.07C619.71 116.94 629.55 107.1 641.68 107.1C653.81 107.1 663.65 116.94 663.65 129.07Z" id="baL5VkGyS"></path><linearGradient id="gradientb2gnzLBOML" gradientUnits="userSpaceOnUse" x1="641.68" y1="107.1" x2="641.68" y2="151.04"><stop style="stop-color: #130839;stop-opacity: 0.54" offset="0%"></stop><stop style="stop-color: #0e062a;stop-opacity: 0.17" offset="100%"></stop></linearGradient><path d="M675.52 87.99C677.95 99.87 670.29 111.49 658.41 113.93C646.53 116.37 634.9 108.7 632.47 96.82C630.03 84.94 637.7 73.32 649.58 70.88C661.46 68.44 673.08 76.11 675.52 87.99Z" id="bFFttbxzB"></path><linearGradient id="gradientaQhNTRiJ2" gradientUnits="userSpaceOnUse" x1="649.58" y1="70.88" x2="658.41" y2="113.93"><stop style="stop-color: #130839;stop-opacity: 0.54" offset="0%"></stop><stop style="stop-color: #0e062a;stop-opacity: 0.17" offset="100%"></stop></linearGradient><path d="M645.87 70.43C645.87 82.56 636.03 92.4 623.9 92.4C611.77 92.4 601.93 82.56 601.93 70.43C601.93 58.3 611.77 48.46 623.9 48.46C636.03 48.46 645.87 58.3 645.87 70.43Z" id="b7SVGa1y0"></path><linearGradient id="gradienta1hPR9HCEi" gradientUnits="userSpaceOnUse" x1="623.9" y1="48.46" x2="623.9" y2="92.4"><stop style="stop-color: #130839;stop-opacity: 0.54" offset="0%"></stop><stop style="stop-color: #0e062a;stop-opacity: 0.17" offset="100%"></stop></linearGradient><path d="M586.33 34.33L586.21 35.65L586.02 36.94L585.75 38.21L585.41 39.45L584.99 40.66L584.52 41.83L583.97 42.98L583.37 44.08L582.7 45.14L581.98 46.17L581.2 47.15L580.37 48.08L579.48 48.96L578.55 49.8L577.57 50.57L576.55 51.3L575.48 51.96L574.38 52.57L573.24 53.11L572.06 53.59L570.85 54L569.61 54.34L568.34 54.61L567.05 54.81L565.73 54.93L564.4 54.97L563.06 54.93L561.74 54.81L560.45 54.61L559.18 54.34L557.94 54L556.73 53.59L555.56 53.11L554.42 52.57L553.31 51.96L552.25 51.3L551.22 50.57L550.24 49.8L549.31 48.96L548.43 48.08L547.59 47.15L546.82 46.17L546.09 45.14L545.43 44.08L544.82 42.98L544.28 41.83L543.8 40.66L543.39 39.45L543.05 38.21L542.78 36.94L542.58 35.65L542.46 34.33L542.42 32.99L542.46 31.66L542.58 30.34L542.78 29.05L543.05 27.78L543.39 26.54L543.8 25.33L544.28 24.15L544.82 23.01L545.43 21.91L546.09 20.84L546.82 19.82L547.59 18.84L548.43 17.91L549.31 17.02L550.24 16.19L551.22 15.41L552.25 14.69L553.31 14.02L554.42 13.42L555.56 12.87L556.73 12.4L557.94 11.99L559.18 11.64L560.45 11.37L561.74 11.18L563.06 11.06L564.4 11.02L565.73 11.06L567.05 11.18L568.34 11.37L569.61 11.64L570.85 11.99L572.06 12.4L573.24 12.87L574.38 13.42L575.48 14.02L576.55 14.69L577.57 15.41L578.55 16.19L579.48 17.02L580.37 17.91L581.2 18.84L581.98 19.82L582.7 20.84L583.37 21.91L583.97 23.01L584.52 24.15L584.99 25.33L585.41 26.54L585.75 27.78L586.02 29.05L586.21 30.34L586.33 31.66L586.37 32.99L586.37 32.99L586.33 34.33Z" id="a12wx2xzcV"></path><linearGradient id="gradientb8y7o9CRap" gradientUnits="userSpaceOnUse" x1="564.4" y1="11.02" x2="564.4" y2="54.97"><stop style="stop-color: #130839;stop-opacity: 0.54" offset="0%"></stop><stop style="stop-color: #0e062a;stop-opacity: 0.17" offset="100%"></stop></linearGradient><path d="M612.56 54.97C612.56 67.09 602.71 76.94 590.59 76.94C578.46 76.94 568.62 67.09 568.62 54.97C568.62 42.84 578.46 32.99 590.59 32.99C602.71 32.99 612.56 42.84 612.56 54.97Z" id="b1lnDEBFTB"></path><linearGradient id="gradientaP7r5e2e" gradientUnits="userSpaceOnUse" x1="590.59" y1="32.99" x2="590.59" y2="76.94"><stop style="stop-color: #130839;stop-opacity: 0.54" offset="0%"></stop><stop style="stop-color: #0e062a;stop-opacity: 0.17" offset="100%"></stop></linearGradient><path d="M624.43 13.88C626.86 25.76 619.2 37.39 607.32 39.82C595.44 42.26 583.81 34.59 581.38 22.71C578.94 10.83 586.61 -0.79 598.49 -3.23C610.37 -5.66 621.99 2 624.43 13.88Z" id="avBFSDfB"></path><linearGradient id="gradientj7vYV9yKen" gradientUnits="userSpaceOnUse" x1="598.49" y1="-3.23" x2="607.32" y2="39.82"><stop style="stop-color: #130839;stop-opacity: 0.54" offset="0%"></stop><stop style="stop-color: #0e062a;stop-opacity: 0.17" offset="100%"></stop></linearGradient><path d="M594.78 -3.67C594.78 8.45 584.94 18.3 572.81 18.3C560.68 18.3 550.84 8.45 550.84 -3.67C550.84 -15.8 560.68 -25.65 572.81 -25.65C584.94 -25.65 594.78 -15.8 594.78 -3.67Z" id="c4mL6uOG5"></path><linearGradient id="gradientgAVaqCKW9" gradientUnits="userSpaceOnUse" x1="572.81" y1="-25.65" x2="572.81" y2="18.3"><stop style="stop-color: #130839;stop-opacity: 0.54" offset="0%"></stop><stop style="stop-color: #0e062a;stop-opacity: 0.17" offset="100%"></stop></linearGradient><path d="M630.44 19.66L630.32 20.98L630.12 22.27L629.85 23.54L629.51 24.78L629.1 25.99L628.62 27.16L628.08 28.3L627.47 29.41L626.81 30.47L626.09 31.5L625.31 32.48L624.47 33.41L623.59 34.29L622.66 35.12L621.68 35.9L620.65 36.63L619.59 37.29L618.49 37.9L617.34 38.44L616.17 38.92L614.96 39.33L613.72 39.67L612.45 39.94L611.16 40.14L609.84 40.25L608.5 40.29L607.17 40.25L605.85 40.14L604.56 39.94L603.29 39.67L602.05 39.33L600.84 38.92L599.66 38.44L598.52 37.9L597.42 37.29L596.35 36.63L595.33 35.9L594.35 35.12L593.42 34.29L592.53 33.41L591.7 32.48L590.92 31.5L590.2 30.47L589.53 29.41L588.93 28.3L588.38 27.16L587.91 25.99L587.5 24.78L587.15 23.54L586.88 22.27L586.69 20.98L586.57 19.66L586.53 18.32L586.57 16.98L586.69 15.67L586.88 14.37L587.15 13.11L587.5 11.87L587.91 10.66L588.38 9.48L588.93 8.34L589.53 7.24L590.2 6.17L590.92 5.15L591.7 4.17L592.53 3.24L593.42 2.35L594.35 1.52L595.33 0.74L596.35 0.02L597.42 -0.65L598.52 -1.25L599.66 -1.8L600.84 -2.28L602.05 -2.69L603.29 -3.03L604.56 -3.3L605.85 -3.49L607.17 -3.61L608.5 -3.65L609.84 -3.61L611.16 -3.49L612.45 -3.3L613.72 -3.03L614.96 -2.69L616.17 -2.28L617.34 -1.8L618.49 -1.25L619.59 -0.65L620.65 0.02L621.68 0.74L622.66 1.52L623.59 2.35L624.47 3.24L625.31 4.17L626.09 5.15L626.81 6.17L627.47 7.24L628.08 8.34L628.62 9.48L629.1 10.66L629.51 11.87L629.85 13.11L630.12 14.37L630.32 15.67L630.44 16.98L630.48 18.32L630.48 18.32L630.44 19.66Z" id="a3XjvbSNFI"></path><linearGradient id="gradientalEhq9hvk" gradientUnits="userSpaceOnUse" x1="608.5" y1="-3.65" x2="608.5" y2="40.29"><stop style="stop-color: #130839;stop-opacity: 0.54" offset="0%"></stop><stop style="stop-color: #0e062a;stop-opacity: 0.17" offset="100%"></stop></linearGradient><path d="M656.67 40.29C656.67 52.42 646.82 62.27 634.69 62.27C622.57 62.27 612.72 52.42 612.72 40.29C612.72 28.17 622.57 18.32 634.69 18.32C646.82 18.32 656.67 28.17 656.67 40.29Z" id="cQQi9m50v"></path><linearGradient id="gradientc517O7lqD" gradientUnits="userSpaceOnUse" x1="634.69" y1="18.32" x2="634.69" y2="62.27"><stop style="stop-color: #130839;stop-opacity: 0.54" offset="0%"></stop><stop style="stop-color: #0e062a;stop-opacity: 0.17" offset="100%"></stop></linearGradient><path d="M668.53 -0.79C670.97 11.09 663.3 22.72 651.42 25.15C639.54 27.59 627.92 19.92 625.48 8.04C623.05 -3.84 630.71 -15.46 642.59 -17.9C654.47 -20.33 666.09 -12.67 668.53 -0.79Z" id="dJ0KYdfO8"></path><linearGradient id="gradientf1io2IazFI" gradientUnits="userSpaceOnUse" x1="642.59" y1="-17.9" x2="651.42" y2="25.15"><stop style="stop-color: #130839;stop-opacity: 0.54" offset="0%"></stop><stop style="stop-color: #0e062a;stop-opacity: 0.17" offset="100%"></stop></linearGradient><path d="M638.89 -18.34C638.89 -6.22 629.04 3.63 616.92 3.63C604.79 3.63 594.94 -6.22 594.94 -18.34C594.94 -30.47 604.79 -40.32 616.92 -40.32C629.04 -40.32 638.89 -30.47 638.89 -18.34Z" id="hmyTKcwiw"></path><linearGradient id="gradientaguXtcns5" gradientUnits="userSpaceOnUse" x1="616.92" y1="-40.32" x2="616.92" y2="3.63"><stop style="stop-color: #130839;stop-opacity: 0.54" offset="0%"></stop><stop style="stop-color: #0e062a;stop-opacity: 0.17" offset="100%"></stop></linearGradient><path d="M535.87 -15.06L535.76 -13.74L535.56 -12.45L535.29 -11.18L534.95 -9.94L534.54 -8.73L534.06 -7.55L533.52 -6.41L532.91 -5.31L532.25 -4.24L531.52 -3.22L530.74 -2.24L529.91 -1.31L529.03 -0.42L528.1 0.41L527.12 1.19L526.09 1.91L525.03 2.58L523.92 3.18L522.78 3.72L521.61 4.2L520.4 4.61L519.16 4.95L517.89 5.22L516.6 5.42L515.28 5.54L513.94 5.58L512.6 5.54L511.29 5.42L509.99 5.22L508.73 4.95L507.49 4.61L506.28 4.2L505.1 3.72L503.96 3.18L502.86 2.58L501.79 1.91L500.77 1.19L499.79 0.41L498.86 -0.42L497.97 -1.31L497.14 -2.24L496.36 -3.22L495.64 -4.24L494.97 -5.31L494.37 -6.41L493.82 -7.55L493.34 -8.73L492.93 -9.94L492.59 -11.18L492.32 -12.45L492.13 -13.74L492.01 -15.06L491.97 -16.39L492.01 -17.73L492.13 -19.05L492.32 -20.34L492.59 -21.61L492.93 -22.85L493.34 -24.06L493.82 -25.23L494.37 -26.38L494.97 -27.48L495.64 -28.55L496.36 -29.57L497.14 -30.55L497.97 -31.48L498.86 -32.36L499.79 -33.2L500.77 -33.98L501.79 -34.7L502.86 -35.37L503.96 -35.97L505.1 -36.51L506.28 -36.99L507.49 -37.4L508.73 -37.74L509.99 -38.01L511.29 -38.21L512.6 -38.33L513.94 -38.37L515.28 -38.33L516.6 -38.21L517.89 -38.01L519.16 -37.74L520.4 -37.4L521.61 -36.99L522.78 -36.51L523.92 -35.97L525.03 -35.37L526.09 -34.7L527.12 -33.98L528.1 -33.2L529.03 -32.36L529.91 -31.48L530.74 -30.55L531.52 -29.57L532.25 -28.55L532.91 -27.48L533.52 -26.38L534.06 -25.23L534.54 -24.06L534.95 -22.85L535.29 -21.61L535.56 -20.34L535.76 -19.05L535.87 -17.73L535.91 -16.39L535.91 -16.39L535.87 -15.06Z" id="afowivNZS"></path><linearGradient id="gradienta1fg9mpYPl" gradientUnits="userSpaceOnUse" x1="513.94" y1="-38.37" x2="513.94" y2="5.58"><stop style="stop-color: #130839;stop-opacity: 0.54" offset="0%"></stop><stop style="stop-color: #0e062a;stop-opacity: 0.17" offset="100%"></stop></linearGradient><path d="M562.11 5.58C562.11 17.71 552.26 27.55 540.13 27.55C528.01 27.55 518.16 17.71 518.16 5.58C518.16 -6.55 528.01 -16.39 540.13 -16.39C552.26 -16.39 562.11 -6.55 562.11 5.58Z" id="c5rqxCyR8O"></path><linearGradient id="gradientb4ftSCijBu" gradientUnits="userSpaceOnUse" x1="540.13" y1="-16.39" x2="540.13" y2="27.55"><stop style="stop-color: #130839;stop-opacity: 0.54" offset="0%"></stop><stop style="stop-color: #0e062a;stop-opacity: 0.17" offset="100%"></stop></linearGradient><path d="M573.97 -35.5C576.41 -23.62 568.74 -12 556.86 -9.56C544.98 -7.13 533.36 -14.79 530.92 -26.67C528.48 -38.55 536.15 -50.18 548.03 -52.61C559.91 -55.05 571.53 -47.38 573.97 -35.5Z" id="ag8J0B2BZ"></path><linearGradient id="gradientbOmAzmEe" gradientUnits="userSpaceOnUse" x1="548.03" y1="-52.61" x2="556.86" y2="-9.56"><stop style="stop-color: #130839;stop-opacity: 0.54" offset="0%"></stop><stop style="stop-color: #0e062a;stop-opacity: 0.17" offset="100%"></stop></linearGradient><path d="M544.33 -53.06C544.33 -40.93 534.48 -31.09 522.35 -31.09C510.23 -31.09 500.38 -40.93 500.38 -53.06C500.38 -65.19 510.23 -75.03 522.35 -75.03C534.48 -75.03 544.33 -65.19 544.33 -53.06Z" id="jKNpOxjC"></path><linearGradient id="gradientaojOF0mcM" gradientUnits="userSpaceOnUse" x1="522.35" y1="-75.03" x2="522.35" y2="-31.09"><stop style="stop-color: #130839;stop-opacity: 0.54" offset="0%"></stop><stop style="stop-color: #0e062a;stop-opacity: 0.17" offset="100%"></stop></linearGradient><path d="M627.56 618.98L627.44 620.3L627.24 621.59L626.97 622.86L626.63 624.1L626.22 625.31L625.74 626.48L625.2 627.62L624.59 628.73L623.93 629.79L623.21 630.82L622.43 631.8L621.59 632.73L620.71 633.61L619.78 634.44L618.8 635.22L617.77 635.95L616.71 636.61L615.61 637.22L614.46 637.76L613.29 638.24L612.08 638.65L610.84 638.99L609.57 639.26L608.28 639.46L606.96 639.57L605.62 639.61L604.29 639.57L602.97 639.46L601.68 639.26L600.41 638.99L599.17 638.65L597.96 638.24L596.78 637.76L595.64 637.22L594.54 636.61L593.47 635.95L592.45 635.22L591.47 634.44L590.54 633.61L589.65 632.73L588.82 631.8L588.04 630.82L587.32 629.79L586.65 628.73L586.05 627.62L585.5 626.48L585.03 625.31L584.62 624.1L584.27 622.86L584.01 621.59L583.81 620.3L583.69 618.98L583.65 617.64L583.69 616.3L583.81 614.99L584.01 613.69L584.27 612.43L584.62 611.19L585.03 609.98L585.5 608.8L586.05 607.66L586.65 606.56L587.32 605.49L588.04 604.47L588.82 603.49L589.65 602.56L590.54 601.67L591.47 600.84L592.45 600.06L593.47 599.34L594.54 598.67L595.64 598.07L596.78 597.52L597.96 597.04L599.17 596.63L600.41 596.29L601.68 596.02L602.97 595.83L604.29 595.71L605.62 595.67L606.96 595.71L608.28 595.83L609.57 596.02L610.84 596.29L612.08 596.63L613.29 597.04L614.46 597.52L615.61 598.07L616.71 598.67L617.77 599.34L618.8 600.06L619.78 600.84L620.71 601.67L621.59 602.56L622.43 603.49L623.21 604.47L623.93 605.49L624.59 606.56L625.2 607.66L625.74 608.8L626.22 609.98L626.63 611.19L626.97 612.43L627.24 613.69L627.44 614.99L627.56 616.3L627.6 617.64L627.6 617.64L627.56 618.98Z" id="daiCVBUXH"></path><linearGradient id="gradientl1gzL7oKtQ" gradientUnits="userSpaceOnUse" x1="605.62" y1="595.67" x2="605.62" y2="639.61"><stop style="stop-color: #130839;stop-opacity: 0.54" offset="0%"></stop><stop style="stop-color: #0e062a;stop-opacity: 0.17" offset="100%"></stop></linearGradient><path d="M653.79 639.61C653.79 651.74 643.94 661.59 631.81 661.59C619.69 661.59 609.84 651.74 609.84 639.61C609.84 627.49 619.69 617.64 631.81 617.64C643.94 617.64 653.79 627.49 653.79 639.61Z" id="b5c07wKtR8"></path><linearGradient id="gradientbIMc78lbr" gradientUnits="userSpaceOnUse" x1="631.81" y1="617.64" x2="631.81" y2="661.59"><stop style="stop-color: #130839;stop-opacity: 0.54" offset="0%"></stop><stop style="stop-color: #0e062a;stop-opacity: 0.17" offset="100%"></stop></linearGradient><path d="M665.65 598.53C668.09 610.41 660.42 622.04 648.54 624.47C636.66 626.91 625.04 619.24 622.6 607.36C620.17 595.48 627.83 583.86 639.71 581.42C651.59 578.99 663.21 586.65 665.65 598.53Z" id="aiQVsgPNH"></path><linearGradient id="gradientbuCVutjHz" gradientUnits="userSpaceOnUse" x1="639.71" y1="581.42" x2="648.54" y2="624.47"><stop style="stop-color: #130839;stop-opacity: 0.54" offset="0%"></stop><stop style="stop-color: #0e062a;stop-opacity: 0.17" offset="100%"></stop></linearGradient><path d="M636.01 580.98C636.01 593.1 626.16 602.95 614.04 602.95C601.91 602.95 592.06 593.1 592.06 580.98C592.06 568.85 601.91 559 614.04 559C626.16 559 636.01 568.85 636.01 580.98Z" id="a1Qi5PBOv"></path><linearGradient id="gradientalajI8XsH" gradientUnits="userSpaceOnUse" x1="614.04" y1="559" x2="614.04" y2="602.95"><stop style="stop-color: #130839;stop-opacity: 0.54" offset="0%"></stop><stop style="stop-color: #0e062a;stop-opacity: 0.17" offset="100%"></stop></linearGradient></defs><g><g><g><use xlink:href="#aGSSW4CT9" opacity="1" fill="#0f072a" fill-opacity="1"></use><g><use xlink:href="#aGSSW4CT9" opacity="1" fill-opacity="0" stroke="#000000" stroke-width="0" stroke-opacity="1"></use></g></g><g><use xlink:href="#b1kbU356Xq" opacity="1" fill="#0f072a" fill-opacity="0.88"></use><g><use xlink:href="#b1kbU356Xq" opacity="1" fill-opacity="0" stroke="#000000" stroke-width="0" stroke-opacity="1"></use></g></g><g><g><use xlink:href="#cbzRHVc1L" opacity="1" fill="url(#gradientb1usWRGSQ6)"></use></g><g><use xlink:href="#bfujpWabU" opacity="1" fill="url(#gradientlfklgURmL)"></use></g><g><use xlink:href="#bbl9DF5AXh" opacity="1" fill="url(#gradienta1ZlbrZmIz)"></use></g><g><use xlink:href="#d3EhJVpTmm" opacity="1" fill="url(#gradienta2JZl4oj0v)"></use></g></g><g><g><use xlink:href="#de3OnfVu" opacity="1" fill="url(#gradientcj4duOaWb)"></use></g><g><use xlink:href="#g6SiVJrlhX" opacity="1" fill="url(#gradientb9ryA7Jotp)"></use></g><g><use xlink:href="#d1x4b2LfWD" opacity="1" fill="url(#gradientfiY23txcx)"></use></g><g><use xlink:href="#bDILXwHcd" opacity="1" fill="url(#gradientb1rt7ULOMT)"></use></g></g><g><g><use xlink:href="#c5Nt62Hr6a" opacity="1" fill="url(#gradientcKPVCuf11)"></use></g><g><use xlink:href="#b1xvdpnI1E" opacity="1" fill="url(#gradientj1hSgXD3Ft)"></use></g><g><use xlink:href="#c1c5rblfch" opacity="1" fill="url(#gradienta1svFPxGz)"></use></g><g><use xlink:href="#bMJgJEAWT" opacity="1" fill="url(#gradienta1NJpWmyUB)"></use></g></g><g><g><use xlink:href="#a2vsvZCXgH" opacity="1" fill="url(#gradientalO3is0e9)"></use></g><g><use xlink:href="#bEpoGdvMY" opacity="1" fill="url(#gradientbKAtaOO0M)"></use></g><g><use xlink:href="#b1QUOjpzEa" opacity="1" fill="url(#gradienta2vpYxiTBr)"></use></g><g><use xlink:href="#e3AsQKnXX" opacity="1" fill="url(#gradientbTCaTLDDl)"></use></g></g><g><g><use xlink:href="#b1aPwz64yX" opacity="1" fill="url(#gradientc3knIoIfaP)"></use></g><g><use xlink:href="#bACGd3k6o" opacity="1" fill="url(#gradienta1XQYiYKTV)"></use></g><g><use xlink:href="#a1CiMlPFEK" opacity="1" fill="url(#gradienteCpMMjWir)"></use></g><g><use xlink:href="#cQsgRwj9x" opacity="1" fill="url(#gradientcR4gZuglE)"></use></g></g><g><g><use xlink:href="#b4fOtLskUy" opacity="1" fill="url(#gradientiSBQX54gW)"></use></g><g><use xlink:href="#fNwHV3Fgh" opacity="1" fill="url(#gradienta1GX6MRt9o)"></use></g><g><use xlink:href="#b8kLZTWBwN" opacity="1" fill="url(#gradientaTI5CYJw)"></use></g><g><use xlink:href="#c56mjo03a" opacity="1" fill="url(#gradientaNLhl0BhU)"></use></g></g><g><g><use xlink:href="#aSOG76HLE" opacity="1" fill="url(#gradientc8RVkUvC8)"></use></g><g><use xlink:href="#c2IOyz05gv" opacity="1" fill="url(#gradientbHHPJCF1m)"></use></g><g><use xlink:href="#a18ZODXKuS" opacity="1" fill="url(#gradientg8zrYHedF)"></use></g><g><use xlink:href="#a4770Zreh" opacity="1" fill="url(#gradientc1fXzGKLLW)"></use></g></g><g><g><use xlink:href="#a3ppLbO7fX" opacity="1" fill="url(#gradientae5v8OFDl)"></use></g><g><use xlink:href="#f2mDyIoon" opacity="1" fill="url(#gradientc7jzsY7PWD)"></use></g><g><use xlink:href="#a1TkZhgGIV" opacity="1" fill="url(#gradientabHZvc3shc)"></use></g><g><use xlink:href="#aVVOoUirh" opacity="1" fill="url(#gradientb2CpgdVCmR)"></use></g></g><g><g><use xlink:href="#cvu85ArwV" opacity="1" fill="url(#gradientd12MP07MZC)"></use></g><g><use xlink:href="#baL5VkGyS" opacity="1" fill="url(#gradientb2gnzLBOML)"></use></g><g><use xlink:href="#bFFttbxzB" opacity="1" fill="url(#gradientaQhNTRiJ2)"></use></g><g><use xlink:href="#b7SVGa1y0" opacity="1" fill="url(#gradienta1hPR9HCEi)"></use></g></g><g><g><use xlink:href="#a12wx2xzcV" opacity="1" fill="url(#gradientb8y7o9CRap)"></use></g><g><use xlink:href="#b1lnDEBFTB" opacity="1" fill="url(#gradientaP7r5e2e)"></use></g><g><use xlink:href="#avBFSDfB" opacity="1" fill="url(#gradientj7vYV9yKen)"></use></g><g><use xlink:href="#c4mL6uOG5" opacity="1" fill="url(#gradientgAVaqCKW9)"></use></g></g><g><g><use xlink:href="#a3XjvbSNFI" opacity="1" fill="url(#gradientalEhq9hvk)"></use></g><g><use xlink:href="#cQQi9m50v" opacity="1" fill="url(#gradientc517O7lqD)"></use></g><g><use xlink:href="#dJ0KYdfO8" opacity="1" fill="url(#gradientf1io2IazFI)"></use></g><g><use xlink:href="#hmyTKcwiw" opacity="1" fill="url(#gradientaguXtcns5)"></use></g></g><g><g><use xlink:href="#afowivNZS" opacity="1" fill="url(#gradienta1fg9mpYPl)"></use></g><g><use xlink:href="#c5rqxCyR8O" opacity="1" fill="url(#gradientb4ftSCijBu)"></use></g><g><use xlink:href="#ag8J0B2BZ" opacity="1" fill="url(#gradientbOmAzmEe)"></use></g><g><use xlink:href="#jKNpOxjC" opacity="1" fill="url(#gradientaojOF0mcM)"></use></g></g><g><g><use xlink:href="#daiCVBUXH" opacity="1" fill="url(#gradientl1gzL7oKtQ)"></use></g><g><use xlink:href="#b5c07wKtR8" opacity="1" fill="url(#gradientbIMc78lbr)"></use></g><g><use xlink:href="#aiQVsgPNH" opacity="1" fill="url(#gradientbuCVutjHz)"></use></g><g><use xlink:href="#a1Qi5PBOv" opacity="1" fill="url(#gradientalajI8XsH)"></use></g></g></g></g></svg>